<!--?xml version="1.0" encoding="utf-8"?-->
<!-- Generator: Adobe Illustrator 15.1.0, SVG Export Plug-In . SVG Version: 6.00 Build 0)  -->

<svg version="1.1" id="_x32_" xmlns="http://www.w3.org/2000/svg" xmlns:xlink="http://www.w3.org/1999/xlink" x="0px" y="0px" width="512px" height="512px" viewBox="0 0 512 512" style="width: 32px; height: 32px; opacity: 1;" xml:space="preserve">
<style type="text/css">

	.st0{fill:#4B4B4B;}

</style>
<g>
	<path class="st0" d="M256,55.625c-141.375,0-256,46.078-256,102.906C0,263.313,62.953,353.375,153.094,393v22
		c0,22.844,46.063,41.375,102.906,41.375c56.828,0,102.906-18.531,102.906-41.375v-22C449.031,353.375,512,263.313,512,158.531
		C512,101.703,397.375,55.625,256,55.625z M421.422,192.5C378.531,209.719,318.25,219.609,256,219.609
		c-62.234,0-122.531-9.891-165.422-27.109c-39.766-16-48.75-31.734-48.75-33.969c0-2.219,8.984-17.969,48.75-33.938
		C133.469,107.344,193.766,97.453,256,97.453c62.25,0,122.531,9.891,165.422,27.141c39.766,15.969,48.75,31.719,48.75,33.938
		C470.172,160.766,461.188,176.5,421.422,192.5z" style="fill: rgb(75, 75, 75);"></path>
</g>
</svg>
